<?xml version="1.0" encoding="iso-8859-1"?>
<!-- Generator: Adobe Illustrator 19.0.0, SVG Export Plug-In . SVG Version: 6.00 Build 0)  -->
<svg version="1.1" id="Layer_1" xmlns="http://www.w3.org/2000/svg" xmlns:xlink="http://www.w3.org/1999/xlink" x="0px" y="0px"
	 viewBox="0 0 487.9 487.9" style="enable-background:new 0 0 487.9 487.9;" xml:space="preserve">
<g transform="translate(0 -540.36)">
	<g>
		<g>
			<path d="M319.6,989.56l-12.7-6.4l12.7-6.4c4.9-2.5,6.9-8.5,4.5-13.4c-2.5-4.9-8.5-6.9-13.4-4.5l-16.1,8.1v-19c0-5.5-4.5-10-10-10
				s-10,4.5-10,10v19l-16.1-8.1c-4.9-2.5-10.9-0.5-13.4,4.5c-2.5,4.9-0.5,10.9,4.5,13.4l12.7,6.4l-12.7,6.4
				c-4.9,2.5-6.9,8.5-4.5,13.4c1.8,3.5,5.3,5.5,9,5.5c1.5,0,3-0.3,4.5-1.1l16.1-8.1v19c0,5.5,4.5,10,10,10s10-4.5,10-10v-19
				l16.1,8.1c1.4,0.7,3,1.1,4.5,1.1c3.7,0,7.2-2,9-5.5C326.6,998.06,324.6,991.96,319.6,989.56z"/>
			<path d="M156.9,989.56l-12.7-6.4l12.7-6.4c4.9-2.5,6.9-8.5,4.5-13.4c-2.5-4.9-8.5-6.9-13.4-4.5l-16.1,8.1v-19c0-5.5-4.5-10-10-10
				s-10,4.5-10,10v19l-16.1-8.1c-4.9-2.5-10.9-0.5-13.4,4.5c-2.5,4.9-0.5,10.9,4.5,13.4l12.7,6.4l-12.7,6.4
				c-4.9,2.5-6.9,8.5-4.5,13.4c1.8,3.5,5.3,5.5,9,5.5c1.5,0,3-0.3,4.5-1.1l16.1-8.1v19c0,5.5,4.5,10,10,10s10-4.5,10-10v-19
				l16.1,8.1c1.4,0.7,3,1.1,4.5,1.1c3.7,0,7.2-2,9-5.5C163.8,998.06,161.8,991.96,156.9,989.56z"/>
			<path d="M66.7,919.36c-4.4-3.3-10.7-2.4-14,2l-30.6,40.5c-3.3,4.4-2.4,10.7,2,14c1.8,1.3,3.9,2,6,2c3.1,0,6.1-1.3,8-4l30.6-40.5
				C72,928.96,71.1,922.66,66.7,919.36z"/>
			<path d="M229.5,919.36c-4.4-3.3-10.7-2.4-14,2l-30.6,40.5c-3.3,4.4-2.4,10.7,2,14c1.8,1.3,3.9,2,6,2c3,0,6-1.3,8-4l30.6-40.5
				C234.8,928.96,233.9,922.66,229.5,919.36z"/>
			<path d="M393,919.36c-4.4-3.3-10.7-2.4-14,2l-30.6,40.5c-3.3,4.4-2.4,10.7,2,14c1.8,1.3,3.9,2,6,2c3,0,6-1.3,8-4l30.6-40.5
				C398.3,928.96,397.4,922.66,393,919.36z"/>
			<path d="M335.8,590.16c5.5,0,10-4.5,10-10v-29.8c0-5.5-4.5-10-10-10s-10,4.5-10,10v29.8C325.8,585.66,330.3,590.16,335.8,590.16z
				"/>
			<path d="M417.5,620.76c2.6,0,5.2-1,7-2.9l19.9-19.9c3.9-3.9,3.9-10.2,0-14.1c-3.9-3.9-10.2-3.9-14.1,0l-19.9,19.9
				c-3.9,3.9-3.9,10.2,0,14.1C412.4,619.76,414.9,620.76,417.5,620.76z"/>
			<path d="M424.5,767.36c-3.9-3.9-10.2-3.9-14.1,0c-3.9,3.9-3.9,10.2,0,14.1l19.9,19.9c2,1.9,4.5,2.9,7.1,2.9c2.6,0,5.1-0.9,7-2.9
				c3.9-3.9,3.9-10.2,0-14.1L424.5,767.36z"/>
			<path d="M477.9,672.66h-29.8c-5.5,0-10,4.5-10,10s4.5,10,10,10h29.8c5.5,0,10-4.5,10-10S483.4,672.66,477.9,672.66z"/>
			<path d="M246.9,617.86c2,1.9,4.5,2.9,7.1,2.9c2.6,0,5.1-1,7-2.9c3.9-3.9,3.9-10.2,0-14.1l-19.9-19.9c-3.9-3.9-10.2-3.9-14.1,0
				c-3.9,3.9-3.9,10.2,0,14.1L246.9,617.86z"/>
			<path d="M416.1,704.66c5.9-39.8-17.7-78.3-55.1-89.7l0,0c-18.2-5.9-37.8-4.8-55.3,3.1c-15.1,6.8-27.7,18.3-36.3,32.8
				c-14.1-5.7-29.6-8.8-45.7-8.8c-23.6,0-46.6,6.8-66.3,19.7c-17.2,11.2-31.2,26.5-41,44.6c-9.2-2.5-18.2-3.1-24.7-3.1
				c-24.5,0-47.5,9.4-64.8,26.5C9.5,746.96,0,769.86,0,794.36c0,50.6,41.1,91.8,91.7,91.8h132.1c64.2,0,116.9-49.8,121.8-112.8
				C381.5,769.96,411.2,741.56,416.1,704.66z M223.7,866.16L223.7,866.16l-132.1,0c-39.5,0-71.7-32.2-71.7-71.8
				c0-39.2,32.2-71.1,71.7-71.1c9.6,0,18.8,1.6,25.9,4.6c5,2.1,10.7-0.2,13-5.1c16.7-36.8,53.2-60.6,93.2-60.6
				c56.4,0,102.2,45.6,102.2,101.6C325.9,820.16,280,866.16,223.7,866.16z M345.5,753.26c-3.4-39.5-25.8-73.6-58.1-93.3
				c14.5-23.4,41.9-34.3,67.6-25.9c0.1,0,0.1,0,0.2,0.1c28,8.4,45.6,37.5,41.1,67.6l0,0c0,0.1,0,0.1,0,0.2
				C392.7,728.96,371.5,749.86,345.5,753.26z"/>
		</g>
	</g>
</g>
<g>
</g>
<g>
</g>
<g>
</g>
<g>
</g>
<g>
</g>
<g>
</g>
<g>
</g>
<g>
</g>
<g>
</g>
<g>
</g>
<g>
</g>
<g>
</g>
<g>
</g>
<g>
</g>
<g>
</g>
</svg>
